<svg id="Capa_1" enable-background="new 0 0 512 512" height="512" viewBox="0 0 512 512" width="512" xmlns="http://www.w3.org/2000/svg"><g><path d="m470.5 1.813h-369.608c-4.142 0-7.5 3.357-7.5 7.5s3.358 7.5 7.5 7.5h369.608c14.612 0 26.5 11.888 26.5 26.5v80.68c-33.737 0-460.288 0-482 0v-80.68c0-14.612 11.888-26.5 26.5-26.5h24.392c4.142 0 7.5-3.357 7.5-7.5s-3.358-7.5-7.5-7.5h-24.392c-22.883 0-41.5 18.618-41.5 41.5v377.393c0 22.883 18.617 41.5 41.5 41.5h128.572c17.818 28.772 49.67 47.98 85.928 47.98s68.11-19.209 85.928-47.98h66.213c4.142 0 7.5-3.357 7.5-7.5s-3.358-7.5-7.5-7.5h-58.559c4.821-11.88 7.417-24.81 7.417-38.02 0-22.008-7.08-42.39-19.076-59h106.577c12.407 0 22.5-10.094 22.5-22.5v-136.194c0-12.406-10.093-22.5-22.5-22.5h-377c-12.407 0-22.5 10.094-22.5 22.5v136.194c0 12.406 10.093 22.5 22.5 22.5h106.576c-11.996 16.61-19.076 36.992-19.076 59 0 13.401 2.666 26.311 7.417 38.02h-120.917c-14.612 0-26.5-11.888-26.5-26.5v-281.713h482v281.713c0 14.612-11.888 26.5-26.5 26.5h-27.359c-4.142 0-7.5 3.357-7.5 7.5s3.358 7.5 7.5 7.5h27.359c22.883 0 41.5-18.617 41.5-41.5 0-4.831 0-372.595 0-377.393 0-22.882-18.617-41.5-41.5-41.5zm-410.5 325.874v-136.195c0-4.136 3.364-7.5 7.5-7.5h377c4.136 0 7.5 3.364 7.5 7.5v136.194c0 4.136-3.364 7.5-7.5 7.5h-119.767c-19.202-17.861-43.828-27-68.733-27-24.453 0-49.228 8.856-68.733 27h-119.767c-4.136.001-7.5-3.364-7.5-7.499zm196-4.5c47.345 0 86 38.512 86 86 0 47.208-38.403 86-86 86-47.641 0-86-38.83-86-86 0-47.467 38.631-86 86-86z"/><path d="m463.5 99.177c6.341 0 11.5-5.159 11.5-11.5v-37c0-6.341-5.159-11.5-11.5-11.5h-37c-6.341 0-11.5 5.159-11.5 11.5v37c0 6.341 5.159 11.5 11.5 11.5zm-33.5-45h30v30h-30z"/><path d="m378.46 99.177c6.341 0 11.5-5.159 11.5-11.5v-37c0-6.341-5.159-11.5-11.5-11.5h-37c-6.341 0-11.5 5.159-11.5 11.5v37c0 6.341 5.159 11.5 11.5 11.5zm-33.5-45h30v30h-30z"/><path d="m293.421 99.177c6.341 0 11.5-5.159 11.5-11.5v-37c0-6.341-5.159-11.5-11.5-11.5h-37c-6.341 0-11.5 5.159-11.5 11.5v37c0 6.341 5.159 11.5 11.5 11.5zm-33.5-45h30v30h-30z"/><path d="m195.798 444.854c2.505 4.212 8.299 4.922 11.75 1.471l85.589-85.59c3.454-3.456 2.734-9.25-1.471-11.751-10.783-6.41-23.116-9.798-35.667-9.798-38.598 0-70 31.402-70 70 .001 12.552 3.389 24.886 9.799 35.668zm60.202-90.667c6.528 0 12.981 1.167 19.055 3.418l-70.636 70.637c-2.251-6.073-3.418-12.526-3.418-19.055-.001-30.328 24.672-55 54.999-55z"/><path d="m220.332 469.388c10.782 6.41 23.115 9.799 35.668 9.799 38.598 0 70-31.402 70-70 0-12.552-3.388-24.886-9.798-35.668-2.511-4.222-8.313-4.908-11.75-1.471l-85.59 85.59c-3.465 3.467-2.72 9.26 1.47 11.75zm87.25-79.256c2.251 6.073 3.418 12.526 3.418 19.055 0 30.327-24.673 55-55 55-6.529 0-12.982-1.167-19.055-3.418z"/><path d="m332.844 291.369c10.846 0 19.964-6.977 21.681-16.589 1.302-7.292-1.933-16.79-14.917-21.58-5.634-2.077-10.897-4.335-12.779-5.155-.529-.512-.575-1.153-.506-1.634.171-1.19 1.18-2.147 2.77-2.627 5.953-1.79 11.617 2.607 11.837 2.783 3.171 2.619 7.867 2.197 10.519-.956 2.665-3.171 2.255-7.902-.916-10.567-4.354-3.66-14.681-8.962-25.767-5.622-7.193 2.167-12.286 7.859-13.291 14.856-.948 6.602 1.916 12.954 7.472 16.577.332.216.68.406 1.041.567.28.124 6.937 3.088 14.43 5.851 2.817 1.039 5.699 2.864 5.34 4.87-.304 1.704-2.712 4.226-6.914 4.226-4.357 0-8.536-1.74-11.177-4.654-2.782-3.069-7.523-3.302-10.594-.521-3.069 2.782-3.302 7.524-.521 10.594 5.519 6.089 13.644 9.581 22.292 9.581z"/><path d="m208.002 291.886c4.142 0 7.5-3.357 7.5-7.5v-49.053c0-4.143-3.358-7.5-7.5-7.5-3.833 0-6.989 2.877-7.439 6.589-4.207-2.359-9.052-3.711-14.209-3.711-16.072 0-29.148 13.076-29.148 29.148s13.076 29.147 29.148 29.147c5.157 0 10.002-1.352 14.209-3.711.45 3.713 3.606 6.591 7.439 6.591zm-21.648-17.879c-7.801 0-14.148-6.347-14.148-14.147 0-7.802 6.347-14.148 14.148-14.148s14.148 6.347 14.148 14.148c0 7.8-6.347 14.147-14.148 14.147z"/><path d="m262.056 291.886c6.299 0 12.17-1.855 17.108-5.037 1.02 2.931 3.8 5.037 7.078 5.037 4.142 0 7.5-3.357 7.5-7.5v-72.129c0-4.143-3.358-7.5-7.5-7.5s-7.5 3.357-7.5 7.5v21.023c-4.85-3.017-10.566-4.766-16.686-4.766-17.472 0-31.686 14.215-31.686 31.687s14.214 31.685 31.686 31.685zm0-48.372c9.201 0 16.686 7.485 16.686 16.687 0 9.2-7.485 16.686-16.686 16.686s-16.686-7.487-16.686-16.687c0-9.201 7.485-16.686 16.686-16.686z"/></g></svg>