<?xml version="1.0" encoding="UTF-8" standalone="no"?>
<svg
   xmlns:dc="http://purl.org/dc/elements/1.1/"
   xmlns:cc="http://creativecommons.org/ns#"
   xmlns:rdf="http://www.w3.org/1999/02/22-rdf-syntax-ns#"
   xmlns:svg="http://www.w3.org/2000/svg"
   xmlns="http://www.w3.org/2000/svg"
   xmlns:sodipodi="http://sodipodi.sourceforge.net/DTD/sodipodi-0.dtd"
   xmlns:inkscape="http://www.inkscape.org/namespaces/inkscape"
   inkscape:version="1.0 (4035a4fb49, 2020-05-01)"
   sodipodi:docname="FuturesIcons.svg"
   version="1.1"
   width="2717.8359"
   viewBox="0 0 2717.8359 681.12"
   height="681.12"
   enable-background="new 0 0 512 512"
   id="Capa_1">
  <metadata
     id="metadata27">
    <rdf:RDF>
      <cc:Work
         rdf:about="">
        <dc:format>image/svg+xml</dc:format>
        <dc:type
           rdf:resource="http://purl.org/dc/dcmitype/StillImage" />
        <dc:title></dc:title>
      </cc:Work>
    </rdf:RDF>
  </metadata>
  <defs
     id="defs25" />
  <sodipodi:namedview
     inkscape:current-layer="g1169"
     inkscape:window-maximized="1"
     inkscape:window-y="29"
     inkscape:window-x="-9"
     inkscape:cy="531.21794"
     inkscape:cx="1256.2408"
     inkscape:zoom="0.41113281"
     showgrid="true"
     id="namedview23"
     inkscape:window-height="1013"
     inkscape:window-width="1920"
     inkscape:pageshadow="2"
     inkscape:pageopacity="0"
     guidetolerance="10"
     gridtolerance="10"
     objecttolerance="10"
     borderopacity="1"
     bordercolor="#666666"
     pagecolor="#ffffff"
     inkscape:document-rotation="0">
    <inkscape:grid
       id="grid852"
       type="xygrid" />
  </sodipodi:namedview>
  <g
     id="g1169"
     transform="translate(-3.2080078e-5,19.999993)"
     style="fill:#008000">
    <g
       transform="translate(-603.18497)"
       id="g1024"
       style="fill:#008000">
      <g
         transform="matrix(0.9025,0,0,0.9025,734.96,4.9604512)"
         id="g20"
         style="fill:#dd0031;fill-opacity:1">
        <path
           id="path2"
           d="M 470.5,1.813 H 100.892 c -4.142,0 -7.5,3.357 -7.5,7.5 0,4.143 3.358,7.5 7.5,7.5 H 470.5 c 14.612,0 26.5,11.888 26.5,26.5 v 80.68 c -33.737,0 -460.288,0 -482,0 v -80.68 c 0,-14.612 11.888,-26.5 26.5,-26.5 h 24.392 c 4.142,0 7.5,-3.357 7.5,-7.5 0,-4.143 -3.358,-7.5 -7.5,-7.5 H 41.5 C 18.617,1.813 0,20.431 0,43.313 v 377.393 c 0,22.883 18.617,41.5 41.5,41.5 h 128.572 c 17.818,28.772 49.67,47.98 85.928,47.98 36.258,0 68.11,-19.209 85.928,-47.98 h 66.213 c 4.142,0 7.5,-3.357 7.5,-7.5 0,-4.143 -3.358,-7.5 -7.5,-7.5 h -58.559 c 4.821,-11.88 7.417,-24.81 7.417,-38.02 0,-22.008 -7.08,-42.39 -19.076,-59 H 444.5 c 12.407,0 22.5,-10.094 22.5,-22.5 V 191.492 c 0,-12.406 -10.093,-22.5 -22.5,-22.5 h -377 c -12.407,0 -22.5,10.094 -22.5,22.5 v 136.194 c 0,12.406 10.093,22.5 22.5,22.5 h 106.576 c -11.996,16.61 -19.076,36.992 -19.076,59 0,13.401 2.666,26.311 7.417,38.02 H 41.5 c -14.612,0 -26.5,-11.888 -26.5,-26.5 V 138.993 h 482 v 281.713 c 0,14.612 -11.888,26.5 -26.5,26.5 h -27.359 c -4.142,0 -7.5,3.357 -7.5,7.5 0,4.143 3.358,7.5 7.5,7.5 H 470.5 c 22.883,0 41.5,-18.617 41.5,-41.5 0,-4.831 0,-372.595 0,-377.393 0,-22.882 -18.617,-41.5 -41.5,-41.5 z M 60,327.687 V 191.492 c 0,-4.136 3.364,-7.5 7.5,-7.5 h 377 c 4.136,0 7.5,3.364 7.5,7.5 v 136.194 c 0,4.136 -3.364,7.5 -7.5,7.5 H 324.733 c -19.202,-17.861 -43.828,-27 -68.733,-27 -24.453,0 -49.228,8.856 -68.733,27 H 67.5 c -4.136,0.001 -7.5,-3.364 -7.5,-7.499 z m 196,-4.5 c 47.345,0 86,38.512 86,86 0,47.208 -38.403,86 -86,86 -47.641,0 -86,-38.83 -86,-86 0,-47.467 38.631,-86 86,-86 z"
           style="fill:#dd0031;fill-opacity:1" />
        <path
           id="path4"
           d="m 463.5,99.177 c 6.341,0 11.5,-5.159 11.5,-11.5 v -37 c 0,-6.341 -5.159,-11.5 -11.5,-11.5 h -37 c -6.341,0 -11.5,5.159 -11.5,11.5 v 37 c 0,6.341 5.159,11.5 11.5,11.5 z m -33.5,-45 h 30 v 30 h -30 z"
           style="fill:#dd0031;fill-opacity:1" />
        <path
           id="path6"
           d="m 378.46,99.177 c 6.341,0 11.5,-5.159 11.5,-11.5 v -37 c 0,-6.341 -5.159,-11.5 -11.5,-11.5 h -37 c -6.341,0 -11.5,5.159 -11.5,11.5 v 37 c 0,6.341 5.159,11.5 11.5,11.5 z m -33.5,-45 h 30 v 30 h -30 z"
           style="fill:#dd0031;fill-opacity:1" />
        <path
           id="path8"
           d="m 293.421,99.177 c 6.341,0 11.5,-5.159 11.5,-11.5 v -37 c 0,-6.341 -5.159,-11.5 -11.5,-11.5 h -37 c -6.341,0 -11.5,5.159 -11.5,11.5 v 37 c 0,6.341 5.159,11.5 11.5,11.5 z m -33.5,-45 h 30 v 30 h -30 z"
           style="fill:#dd0031;fill-opacity:1" />
        <path
           id="path10"
           d="m 195.798,444.854 c 2.505,4.212 8.299,4.922 11.75,1.471 l 85.589,-85.59 c 3.454,-3.456 2.734,-9.25 -1.471,-11.751 -10.783,-6.41 -23.116,-9.798 -35.667,-9.798 -38.598,0 -70,31.402 -70,70 0.001,12.552 3.389,24.886 9.799,35.668 z M 256,354.187 c 6.528,0 12.981,1.167 19.055,3.418 l -70.636,70.637 c -2.251,-6.073 -3.418,-12.526 -3.418,-19.055 -0.001,-30.328 24.672,-55 54.999,-55 z"
           style="fill:#dd0031;fill-opacity:1" />
        <path
           id="path12"
           d="m 220.332,469.388 c 10.782,6.41 23.115,9.799 35.668,9.799 38.598,0 70,-31.402 70,-70 0,-12.552 -3.388,-24.886 -9.798,-35.668 -2.511,-4.222 -8.313,-4.908 -11.75,-1.471 l -85.59,85.59 c -3.465,3.467 -2.72,9.26 1.47,11.75 z m 87.25,-79.256 c 2.251,6.073 3.418,12.526 3.418,19.055 0,30.327 -24.673,55 -55,55 -6.529,0 -12.982,-1.167 -19.055,-3.418 z"
           style="fill:#dd0031;fill-opacity:1" />
        <path
           id="path14"
           d="m 332.844,291.369 c 10.846,0 19.964,-6.977 21.681,-16.589 1.302,-7.292 -1.933,-16.79 -14.917,-21.58 -5.634,-2.077 -10.897,-4.335 -12.779,-5.155 -0.529,-0.512 -0.575,-1.153 -0.506,-1.634 0.171,-1.19 1.18,-2.147 2.77,-2.627 5.953,-1.79 11.617,2.607 11.837,2.783 3.171,2.619 7.867,2.197 10.519,-0.956 2.665,-3.171 2.255,-7.902 -0.916,-10.567 -4.354,-3.66 -14.681,-8.962 -25.767,-5.622 -7.193,2.167 -12.286,7.859 -13.291,14.856 -0.948,6.602 1.916,12.954 7.472,16.577 0.332,0.216 0.68,0.406 1.041,0.567 0.28,0.124 6.937,3.088 14.43,5.851 2.817,1.039 5.699,2.864 5.34,4.87 -0.304,1.704 -2.712,4.226 -6.914,4.226 -4.357,0 -8.536,-1.74 -11.177,-4.654 -2.782,-3.069 -7.523,-3.302 -10.594,-0.521 -3.069,2.782 -3.302,7.524 -0.521,10.594 5.519,6.089 13.644,9.581 22.292,9.581 z"
           style="fill:#dd0031;fill-opacity:1" />
        <path
           id="path16"
           d="m 208.002,291.886 c 4.142,0 7.5,-3.357 7.5,-7.5 v -49.053 c 0,-4.143 -3.358,-7.5 -7.5,-7.5 -3.833,0 -6.989,2.877 -7.439,6.589 -4.207,-2.359 -9.052,-3.711 -14.209,-3.711 -16.072,0 -29.148,13.076 -29.148,29.148 0,16.072 13.076,29.147 29.148,29.147 5.157,0 10.002,-1.352 14.209,-3.711 0.45,3.713 3.606,6.591 7.439,6.591 z m -21.648,-17.879 c -7.801,0 -14.148,-6.347 -14.148,-14.147 0,-7.802 6.347,-14.148 14.148,-14.148 7.801,0 14.148,6.347 14.148,14.148 0,7.8 -6.347,14.147 -14.148,14.147 z"
           style="fill:#dd0031;fill-opacity:1" />
        <path
           id="path18"
           d="m 262.056,291.886 c 6.299,0 12.17,-1.855 17.108,-5.037 1.02,2.931 3.8,5.037 7.078,5.037 4.142,0 7.5,-3.357 7.5,-7.5 v -72.129 c 0,-4.143 -3.358,-7.5 -7.5,-7.5 -4.142,0 -7.5,3.357 -7.5,7.5 v 21.023 c -4.85,-3.017 -10.566,-4.766 -16.686,-4.766 -17.472,0 -31.686,14.215 -31.686,31.687 0,17.472 14.214,31.685 31.686,31.685 z m 0,-48.372 c 9.201,0 16.686,7.485 16.686,16.687 0,9.2 -7.485,16.686 -16.686,16.686 -9.201,0 -16.686,-7.487 -16.686,-16.687 0,-9.201 7.485,-16.686 16.686,-16.686 z"
           style="fill:#dd0031;fill-opacity:1" />
      </g>
      <text
         xml:space="preserve"
         style="font-size:64px;line-height:1.25;font-family:Poppins;-inkscape-font-specification:Poppins;fill:#ffffff"
         x="972.19"
         y="563.96802"
         id="text842"><tspan
           sodipodi:role="line"
           id="tspan840"
           x="972.19"
           y="563.96802"
           style="font-size:64px;text-align:center;text-anchor:middle;fill:#ffffff">In-app advertisements </tspan><tspan
           sodipodi:role="line"
           x="972.19"
           y="643.96802"
           id="tspan844"
           style="font-size:64px;text-align:center;text-anchor:middle;fill:#ffffff">blocking</tspan></text>
    </g>
    <g
       transform="translate(-358.54516)"
       id="g1031"
       style="fill:#008000">
      <path
         d="m 1939.4837,327.45075 c 0.1412,-0.28685 0.2661,-0.58029 0.3659,-0.88126 28.5174,-65.81851 23.4217,-146.50945 -13.6169,-208.18309 19.7735,-23.638102 -5.9111,-57.489287 -33.9988,-44.391606 -4.9358,-5.044015 -10.118,-9.878277 -15.4885,-14.449204 10.5414,-28.655762 -24.6397,-52.1631119 -46.5501,-30.753118 -63.6835,-32.1573143 -142.8912,-31.7500692 -206.223,1.088176 -22.5293,-23.8750934 -60.3654,1.723974 -46.725,31.679534 -7.812,6.830993 -15.2064,14.210309 -22.0242,22.013801 -5.8867,6.737887 4.7779,15.972846 10.6241,9.281991 6.3429,-7.258929 13.2152,-14.125664 20.4742,-20.489219 14.0373,10.124693 34.391,4.96688 42.092,-10.487743 25.4138,7.315363 49.683,17.814387 72.2978,31.289211 -1.8933,6.827242 -1.1203,14.452037 2.1284,20.754467 -18.6128,16.07818 -35.3749,34.26596 -49.9303,54.19839 -13.4373,-4.06022 -28.2486,2.73597 -34.092,15.46121 -29.6329,0.15894 -59.358,3.34635 -88.5425,9.51523 -2.577,-4.8023 -6.4838,-8.78162 -11.2202,-11.44707 5.4832,-21.38273 14.1679,-41.72334 25.866,-60.53091 4.6613,-7.49594 -7.1046,-15.28816 -11.9794,-7.45173 -12.4373,19.99545 -21.6752,41.61893 -27.5177,64.34941 -33.7929,0.57373 -39.4662,47.32319 -7.2956,56.31644 -0.4741,66.53424 28.2928,131.22132 78.1761,175.28655 -10.406,28.10932 23.3766,51.29501 45.6705,31.46886 65.0634,34.59701 147.2921,34.60172 212.3592,0.0113 22.6749,22.42576 58.9922,-2.62781 46.2199,-31.94475 25.7092,-22.84804 45.681,-50.79372 58.9301,-81.70485 z m -8.8879,-15.77627 c -19.5261,-19.39916 -40.8948,-36.99722 -63.7088,-52.44527 3.2401,-10.14914 0.4241,-21.56799 -7.1423,-29.06018 19.1846,-31.89773 34.2451,-66.10065 44.8466,-101.83005 3.5327,0.0122 6.929,-0.63957 10.0581,-1.81897 32.4846,54.86333 38.4258,125.59982 15.9464,185.15447 z m -324.5977,79.74104 c -5.9367,-58.14764 4.4806,-116.15796 30.263,-168.58161 16.0171,4.99793 33.3292,-5.53494 36.4395,-21.97618 48.6389,5.99582 95.4835,20.27572 139.4452,42.51433 -2.1142,8.21825 -0.3638,17.28016 4.6726,24.1168 -49.5532,62.77876 -114.9635,110.01824 -189.8251,137.093 -4.5362,-7.18276 -12.1648,-12.20796 -20.9952,-13.16634 z M 1825.3525,250.52 c 0,-7.99347 6.4558,-14.49624 14.391,-14.49624 19.0906,0.79475 19.085,28.20055 0,28.99248 -7.9352,0 -14.391,-6.50276 -14.391,-14.49624 z m 93.692,-150.784131 c 0,7.993481 -6.4559,14.496241 -14.391,14.496241 -19.0916,-0.79474 -19.0869,-28.200548 0,-28.992466 7.9351,0 14.391,6.502753 14.391,14.496225 z m -37.5898,-16.58324 c -9.7495,13.698667 -5.2247,33.501321 9.4737,41.643401 -10.2695,34.4644 -24.8287,67.45596 -43.3504,98.22882 -3.8721,-1.11358 -8.1701,-1.39008 -12.1515,-0.78064 -19.3596,-41.34052 -47.5292,-78.57665 -81.9408,-108.31965 3.2514,-6.30618 4.0262,-13.91781 2.1302,-20.754447 21.7814,-12.977294 45.1129,-23.204512 69.511,-30.474723 8.1092,15.655887 29.8624,20.076334 43.3674,8.356517 4.4759,3.850482 8.8089,7.895657 12.9604,12.100722 z m -167.6825,17.675191 c 0,-7.993477 6.4557,-14.49623 14.3908,-14.49623 19.0916,0.794738 19.086,28.1996 0,28.99153 -7.9351,0 -14.3908,-6.50275 -14.3908,-14.4953 z m 136.4393,-66.192845 c 7.9361,0 14.3919,6.502763 14.3919,14.496237 -0.7919,19.230812 -27.9937,19.226101 -28.7828,0 0,-7.993474 6.4557,-14.496237 14.3909,-14.496237 z m -247.3002,28.991523 c -7.9352,0 -14.3909,-6.502753 -14.3909,-14.496227 0.7919,-19.231752 27.9935,-19.225162 28.7826,0 0,7.993474 -6.4566,14.496227 -14.3917,14.496227 z m 28.4723,-15.577822 c -0.073,-1.958168 -0.3424,-3.864604 -0.79,-5.704255 59.0486,-30.535855 132.8163,-31.068188 192.3203,-1.420185 -0.7647,2.557273 -1.1832,5.261268 -1.1974,8.061196 -25.6629,7.59187 -50.2021,18.315677 -73.1112,31.940991 -11.0117,-11.390638 -29.8682,-11.394398 -40.8835,-9.02e-4 -23.8732,-14.199968 -49.4996,-25.237905 -76.3382,-32.876807 z m 80.7953,76.447334 c 9.5388,6.51028 22.4268,6.51122 31.9665,9e-4 32.8541,28.36701 59.7681,63.87634 78.3066,103.30762 -1.2564,0.96591 -2.4302,2.03528 -3.51,3.19306 -46.3478,-23.50829 -95.808,-38.45503 -147.1828,-44.4687 -1.3873,-4.19848 -3.716,-7.96807 -6.7389,-11.05393 13.788,-18.73045 29.6114,-35.83756 47.1586,-50.97899 z m -67.471,56.52054 c 7.9351,0 14.3909,6.50275 14.3909,14.49621 -0.7919,19.23175 -27.9936,19.22611 -28.7827,0 8e-4,-7.99346 6.4567,-14.49621 14.3918,-14.49621 z M 1490.775,206.6156 c 0,-7.99347 6.4556,-14.49621 14.3907,-14.49621 19.0908,0.79472 19.0852,28.19958 0,28.99149 -7.9342,9e-4 -14.3907,-6.5018 -14.3907,-14.49528 z m 21.4598,27.71241 c 0,0 21.426,-4.6725 21.426,-27.52618 0,0 54.9789,-8.78824 82.6405,-9.09672 0.5193,6.83383 3.4377,13.0008 7.9136,17.6545 -27.4895,55.30351 -38.5772,116.61786 -32.1948,178.06016 -2.7484,1.14555 -5.2782,2.71151 -7.5148,4.61512 -46.0207,-41.22675 -72.2705,-110.30228 -72.2705,-163.70688 z m 90.6765,200.01565 c -7.9352,0 -14.3909,-6.50276 -14.3909,-14.49623 0,-7.99348 6.4557,-14.49624 14.3909,-14.49624 7.8288,0 14.3917,6.78116 14.3917,14.49624 0,7.99347 -6.4566,14.49623 -14.3917,14.49623 z m 125.2517,18.69471 c -34.2358,0 -68.0907,-8.19945 -98.3492,-23.76599 1.2284,-3.52038 1.7702,-7.53075 1.5311,-11.2665 77.4407,-27.91368 145.112,-76.69562 196.3759,-141.56045 4.2117,1.97508 8.8851,2.88174 13.5284,2.63816 3.1339,11.6314 5.6103,23.49795 7.3653,35.36353 1.3439,9.08356 15.3041,7.0539 13.9564,-2.0635 -1.8633,-12.59919 -4.5013,-25.20027 -7.8506,-37.54178 1.6864,-1.04962 3.2533,-2.27323 4.6811,-3.64169 23.5393,15.98038 45.4853,34.32521 65.367,54.62821 -12.3302,27.25721 -30.2763,51.93739 -53.0774,72.33067 -2.2544,-1.69291 -4.7684,-3.0548 -7.4667,-4.02353 1.3864,-13.11367 1.9902,-26.35432 1.7871,-39.45012 -0.1431,-9.2152 -14.2499,-8.99888 -14.106,0.2182 0.1956,12.58792 -0.3876,25.31598 -1.7268,37.92177 -16.6368,2.64568 -27.5177,19.8967 -22.9336,36.06425 -30.4484,15.81389 -64.5658,24.14877 -99.082,24.14877 z m 126.4906,-17.46827 c -7.9352,0 -14.3909,-6.50276 -14.3909,-14.49624 0.7919,-19.23174 27.9936,-19.22516 28.7827,0 0,7.99348 -6.4557,14.49624 -14.3918,14.49624 z"
         id="path2-1"
         style="fill:#dd0031;fill-opacity:1;stroke-width:0.940513" />
      <text
         id="text874"
         y="564.448"
         x="1715.2382"
         style="font-size:64px;line-height:1.25;font-family:Poppins;-inkscape-font-specification:Poppins;fill:#ffffff"
         xml:space="preserve"><tspan
           style="font-size:64px;text-align:center;text-anchor:middle;fill:#ffffff"
           id="tspan872"
           y="564.448"
           x="1715.2382"
           sodipodi:role="line">Improve of network</tspan><tspan
           style="font-size:64px;text-align:center;text-anchor:middle;fill:#ffffff"
           y="644.448"
           x="1715.2382"
           sodipodi:role="line"
           id="tspan885">performance</tspan></text>
    </g>
    <g
       transform="translate(-142.81198)"
       id="g1089"
       style="fill:#008000">
      <text
         xml:space="preserve"
         style="font-size:64px;line-height:1.25;font-family:Poppins;-inkscape-font-specification:Poppins;fill:#ffffff"
         x="2509.6479"
         y="563.96802"
         id="text895"><tspan
           id="tspan893"
           sodipodi:role="line"
           x="2509.6479"
           y="563.96802"
           style="font-size:64px;text-align:center;text-anchor:middle;fill:#ffffff">Widely-respected host </tspan><tspan
           sodipodi:role="line"
           x="2509.6479"
           y="643.96802"
           style="font-size:64px;text-align:center;text-anchor:middle;fill:#ffffff"
           id="tspan1008">file is using</tspan></text>
      <g
         id="g1004"
         transform="matrix(0.9025,0,0,0.9025,2270.69,4.96)"
         style="fill:#dd0031;fill-opacity:1">
        <g
           id="g6"
           style="fill:#dd0031;fill-opacity:1">
          <g
             id="g4"
             style="fill:#dd0031;fill-opacity:1">
            <path
               d="m 160,344 h -16 c -4.418,0 -8,3.582 -8,8 0,4.418 3.582,8 8,8 h 16 c 4.418,0 8,-3.582 8,-8 0,-4.418 -3.582,-8 -8,-8 z"
               id="path2-7"
               style="fill:#dd0031;fill-opacity:1" />
          </g>
        </g>
        <g
           id="g12"
           style="fill:#dd0031;fill-opacity:1">
          <g
             id="g10"
             style="fill:#dd0031;fill-opacity:1">
            <path
               d="M 384,344 H 192 c -4.418,0 -8,3.582 -8,8 0,4.418 3.582,8 8,8 h 192 c 4.418,0 8,-3.582 8,-8 0,-4.418 -3.582,-8 -8,-8 z"
               id="path8-4"
               style="fill:#dd0031;fill-opacity:1" />
          </g>
        </g>
        <g
           id="g18"
           style="fill:#dd0031;fill-opacity:1">
          <g
             id="g16"
             style="fill:#dd0031;fill-opacity:1">
            <path
               d="m 160,296 h -16 c -4.418,0 -8,3.582 -8,8 0,4.418 3.582,8 8,8 h 16 c 4.418,0 8,-3.582 8,-8 0,-4.418 -3.582,-8 -8,-8 z"
               id="path14-6"
               style="fill:#dd0031;fill-opacity:1" />
          </g>
        </g>
        <g
           id="g24"
           style="fill:#dd0031;fill-opacity:1">
          <g
             id="g22"
             style="fill:#dd0031;fill-opacity:1">
            <path
               d="M 384,296 H 192 c -4.418,0 -8,3.582 -8,8 0,4.418 3.582,8 8,8 h 192 c 4.418,0 8,-3.582 8,-8 0,-4.418 -3.582,-8 -8,-8 z"
               id="path20"
               style="fill:#dd0031;fill-opacity:1" />
          </g>
        </g>
        <g
           id="g30"
           style="fill:#dd0031;fill-opacity:1">
          <g
             id="g28"
             style="fill:#dd0031;fill-opacity:1">
            <path
               d="m 160,248 h -16 c -4.418,0 -8,3.582 -8,8 0,4.418 3.582,8 8,8 h 16 c 4.418,0 8,-3.582 8,-8 0,-4.418 -3.582,-8 -8,-8 z"
               id="path26"
               style="fill:#dd0031;fill-opacity:1" />
          </g>
        </g>
        <g
           id="g36"
           style="fill:#dd0031;fill-opacity:1">
          <g
             id="g34"
             style="fill:#dd0031;fill-opacity:1">
            <path
               d="M 384,248 H 192 c -4.418,0 -8,3.582 -8,8 0,4.418 3.582,8 8,8 h 192 c 4.418,0 8,-3.582 8,-8 0,-4.418 -3.582,-8 -8,-8 z"
               id="path32"
               style="fill:#dd0031;fill-opacity:1" />
          </g>
        </g>
        <g
           id="g42"
           style="fill:#dd0031;fill-opacity:1">
          <g
             id="g40"
             style="fill:#dd0031;fill-opacity:1">
            <path
               d="m 160,200 h -16 c -4.418,0 -8,3.582 -8,8 0,4.418 3.582,8 8,8 h 16 c 4.418,0 8,-3.582 8,-8 0,-4.418 -3.582,-8 -8,-8 z"
               id="path38"
               style="fill:#dd0031;fill-opacity:1" />
          </g>
        </g>
        <g
           id="g48"
           style="fill:#dd0031;fill-opacity:1">
          <g
             id="g46"
             style="fill:#dd0031;fill-opacity:1">
            <path
               d="M 384,200 H 192 c -4.418,0 -8,3.582 -8,8 0,4.418 3.582,8 8,8 h 192 c 4.418,0 8,-3.582 8,-8 0,-4.418 -3.582,-8 -8,-8 z"
               id="path44"
               style="fill:#dd0031;fill-opacity:1" />
          </g>
        </g>
        <g
           id="g54"
           style="fill:#dd0031;fill-opacity:1">
          <g
             id="g52"
             style="fill:#dd0031;fill-opacity:1">
            <path
               d="m 160,152 h -16 c -4.418,0 -8,3.582 -8,8 0,4.418 3.582,8 8,8 h 16 c 4.418,0 8,-3.582 8,-8 0,-4.418 -3.582,-8 -8,-8 z"
               id="path50"
               style="fill:#dd0031;fill-opacity:1" />
          </g>
        </g>
        <g
           id="g60"
           style="fill:#dd0031;fill-opacity:1">
          <g
             id="g58"
             style="fill:#dd0031;fill-opacity:1">
            <path
               d="M 384,152 H 192 c -4.418,0 -8,3.582 -8,8 0,4.418 3.582,8 8,8 h 192 c 4.418,0 8,-3.582 8,-8 0,-4.418 -3.582,-8 -8,-8 z"
               id="path56"
               style="fill:#dd0031;fill-opacity:1" />
          </g>
        </g>
        <g
           id="g66"
           transform="matrix(1.0666667,0,0,1.0666667,-8e-6,-8e-6)"
           style="fill:#dd0031;fill-opacity:1">
          <g
             id="g64"
             style="fill:#dd0031;fill-opacity:1">
            <path
               d="m 439.896,119.496 c -0.04,-0.701 -0.177,-1.393 -0.408,-2.056 -0.088,-0.256 -0.152,-0.504 -0.264,-0.752 -0.389,-0.87 -0.931,-1.664 -1.6,-2.344 l -112,-112 C 324.944,1.675 324.15,1.133 323.28,0.744 323.032,0.632 322.784,0.568 322.536,0.48 321.867,0.25 321.17,0.11 320.464,0.064 320.328,0.088 320.176,0 320,0 H 96 C 91.582,0 88,3.582 88,8 V 32 H 48 c -4.418,0 -8,3.582 -8,8 v 432 c 0,4.418 3.582,8 8,8 h 336 c 4.418,0 8,-3.582 8,-8 v -40 h 40 c 4.418,0 8,-3.582 8,-8 V 120 c 0,-0.176 -0.088,-0.328 -0.104,-0.504 z M 328,27.312 412.688,112 H 328 Z M 376,464 H 56 V 48 h 32 v 376 c 0,4.418 3.582,8 8,8 h 280 z m 48,-48 H 104 V 16 h 208 v 104 c 0,4.418 3.582,8 8,8 h 104 z"
               id="path62"
               style="fill:#dd0031;fill-opacity:1" />
          </g>
        </g>
        <g
           id="g72"
           style="fill:#dd0031;fill-opacity:1">
          <g
             id="g70"
             style="fill:#dd0031;fill-opacity:1">
            <path
               d="m 192,72 h -48 c -4.418,0 -8,3.582 -8,8 v 48 c 0,4.418 3.582,8 8,8 h 48 c 4.418,0 8,-3.582 8,-8 V 80 c 0,-4.418 -3.582,-8 -8,-8 z m -8,48 H 152 V 88 h 32 z"
               id="path68"
               style="fill:#dd0031;fill-opacity:1" />
          </g>
        </g>
        <g
           id="g74"
           style="fill:#dd0031;fill-opacity:1" />
        <g
           id="g76"
           style="fill:#dd0031;fill-opacity:1" />
        <g
           id="g78"
           style="fill:#dd0031;fill-opacity:1" />
        <g
           id="g80"
           style="fill:#dd0031;fill-opacity:1" />
        <g
           id="g82"
           style="fill:#dd0031;fill-opacity:1" />
        <g
           id="g84"
           style="fill:#dd0031;fill-opacity:1" />
        <g
           id="g86"
           style="fill:#dd0031;fill-opacity:1" />
        <g
           id="g88"
           style="fill:#dd0031;fill-opacity:1" />
        <g
           id="g90"
           style="fill:#dd0031;fill-opacity:1" />
        <g
           id="g92"
           style="fill:#dd0031;fill-opacity:1" />
        <g
           id="g94"
           style="fill:#dd0031;fill-opacity:1" />
        <g
           id="g96"
           style="fill:#dd0031;fill-opacity:1" />
        <g
           id="g98"
           style="fill:#dd0031;fill-opacity:1" />
        <g
           id="g100"
           style="fill:#dd0031;fill-opacity:1" />
        <g
           id="g102"
           style="fill:#dd0031;fill-opacity:1" />
      </g>
    </g>
  </g>
</svg>
